<svg xmlns="http://www.w3.org/2000/svg" width="100%" height="100%" viewBox="0 0 32.98 47.08"><path d="M16,45.89v2h-.27l-1.32-1.7v1.28c0,.12.07.2.32.23v.19h-.87v-.19c.24,0,.31-.11.31-.23V45.89c0-.19-.07-.25-.32-.27v-.19h.79l1.11,1.5v-1c0-.19-.07-.25-.32-.27v-.19h.88v.19C16.09,45.64,16,45.7,16,45.89Z" transform="translate(-1.51 -3.46)" fill="#e87364"/><path d="M18.52,45.79l-.63,1v.64c0,.12.06.2.3.23v.19H17v-.19c.24,0,.3-.11.3-.23V46.8l-.65-1c-.08-.12-.08-.16-.22-.17v-.19h1.05v.19c-.21,0-.31.08-.21.22l.48.74.48-.74c.09-.13.06-.2-.18-.22v-.19h.7v.19C18.63,45.63,18.61,45.65,18.52,45.79Z" transform="translate(-1.51 -3.46)" fill="#e87364"/><path d="M20.94,47l.15.07a1.14,1.14,0,0,1-1.08.84,1.22,1.22,0,0,1-1.28-1.22A1.2,1.2,0,0,1,20,45.39a1,1,0,0,1,1,.54l-.58.25c-.06-.39-.23-.58-.47-.58s-.61.35-.6.9a.92.92,0,0,0,.84,1A.8.8,0,0,0,20.94,47Z" transform="translate(-1.51 -3.46)" fill="#e87364"/><path d="M15.22,6.76c0,.61-.65.86-1.19,1.27h.69c.22,0,.3-.06.39-.35h.19l-.08.84H13.5V8.31L14,7.79a1.41,1.41,0,0,0,.55-1,.41.41,0,0,0-.42-.45.56.56,0,0,0-.5.44l-.17,0A.85.85,0,0,1,14.37,6,.75.75,0,0,1,15.22,6.76Z" transform="translate(-1.51 -3.46)" fill="#e87364"/><path d="M17.6,7.3c0,.68-.34,1.27-1.06,1.27S15.47,8,15.47,7.3,15.81,6,16.54,6,17.6,6.62,17.6,7.3Zm-1,1.06c.24,0,.4-.35.4-.88,0-.72-.2-1.25-.51-1.25s-.4.35-.4.88C16.08,7.83,16.27,8.36,16.59,8.36Z" transform="translate(-1.51 -3.46)" fill="#e87364"/><path d="M19.47,6.76c0,.61-.66.86-1.19,1.27H19c.23,0,.3-.06.39-.35h.19l-.07.84H17.74V8.31l.54-.52a1.37,1.37,0,0,0,.55-1,.41.41,0,0,0-.42-.45.55.55,0,0,0-.49.44l-.17,0A.84.84,0,0,1,18.61,6,.76.76,0,0,1,19.47,6.76Z" transform="translate(-1.51 -3.46)" fill="#e87364"/><path d="M21.38,6.76c0,.61-.65.86-1.19,1.27h.69c.22,0,.3-.06.39-.35h.19l-.08.84H19.66V8.31l.54-.52a1.39,1.39,0,0,0,.54-1,.41.41,0,0,0-.42-.45.55.55,0,0,0-.49.44l-.17,0A.85.85,0,0,1,20.53,6,.75.75,0,0,1,21.38,6.76Z" transform="translate(-1.51 -3.46)" fill="#e87364"/><path d="M9.67,15H8.91c-.48-1.5-1-1.71-1.72-1.71H5.1v3.6H6.24c.39,0,.79-.38.86-1.29h.76V19H7.1c-.07-.92-.47-1.29-.86-1.29H5.1v3.17c0,.48.29.67,1.15.67H7.32c.72,0,1.24-.33,1.7-1.71h.75l-.14,2.49H1.51v-.76c1-.13,1.25-.46,1.25-.95V14.37c0-.73-.26-1-1.25-1v-.76h8Z" transform="translate(-1.51 -3.46)" fill="#e87364"/><path d="M29,40.68v.76h-5v-.76c1-.13,1.31-.47,1.31-1V33.5c0-.72-.27-1-1.31-1.06v-.76h4.63c2.57,0,4.06,1,4.06,2.81A2.43,2.43,0,0,1,31,36.88l2,3.14a1.69,1.69,0,0,0,1.43.66v.76H31.16l-2.61-4.18H27.7v2.47C27.7,40.2,28,40.55,29,40.68Zm-.7-4.19a1.8,1.8,0,0,0,2-2,1.77,1.77,0,0,0-2-2H27.7v4Z" transform="translate(-1.51 -3.46)" fill="#e87364"/><path d="M6,7.84A3.66,3.66,0,0,1,9.62,4.19H25.34A3.65,3.65,0,0,1,29,7.84V30.77h.73V7.84a4.39,4.39,0,0,0-4.38-4.38H9.62A4.39,4.39,0,0,0,5.23,7.84v3.83H6Z" transform="translate(-1.51 -3.46)" fill="#e87364"/><path d="M29,42.35v3.81a3.65,3.65,0,0,1-3.65,3.65H9.62A3.66,3.66,0,0,1,6,46.16v-23H5.23v23a4.39,4.39,0,0,0,4.39,4.38H25.34a4.39,4.39,0,0,0,4.38-4.38V42.35Z" transform="translate(-1.51 -3.46)" fill="#e87364"/><polygon points="16.8 12.58 16.8 12.59 16.8 12.59 16.8 12.58 16.8 12.58" fill="#e87364"/><path d="M18.31,16Z" transform="translate(-1.51 -3.46)" fill="#e87364"/><polygon points="16.8 12.59 16.8 12.59 16.8 12.59 16.8 12.59 16.8 12.59" fill="#e87364"/><path d="M18.3,16Z" transform="translate(-1.51 -3.46)" fill="#e87364"/><polygon points="16.8 12.58 16.8 12.58 16.8 12.59 16.8 12.58" fill="#e87364"/><path d="M24.32,12.85a2.85,2.85,0,0,0-.81-2.62.14.14,0,0,0-.21.16,5.74,5.74,0,0,1,.33,2.33,3.85,3.85,0,0,0,.09.67,5.12,5.12,0,0,1,.15.56A9.62,9.62,0,0,1,22.6,17.1a6.1,6.1,0,0,1-.71.73c0-.07.07-.14.09-.2a6,6,0,0,0,.48-1.6,9.94,9.94,0,0,0,.13-1.21c0-.24,0-.47,0-.7s.09-.27.13-.41-.09-.11-.13-.05h0a1.48,1.48,0,0,0-.21.61,10.2,10.2,0,0,0-.73,2.14,6.14,6.14,0,0,1-.28,1.78l-.69.47-.22.13h0a9.21,9.21,0,0,1-1.71.81,6.88,6.88,0,0,0,.75-1.77l.06,0a.1.1,0,0,0,.06-.05.09.09,0,0,0,.08-.1,1.18,1.18,0,0,0,.54-1.05.12.12,0,0,0-.13-.11.53.53,0,0,0-.46.43.58.58,0,0,0-.15-.11.11.11,0,0,0-.13,0,.8.8,0,0,0-.06.48h0s-.08,0-.1.05c-.09.22,0,.4.15.44a7.92,7.92,0,0,1-.92,1.59,18,18,0,0,1,1-4.94,0,0,0,0,0,0,0v-.06a1.34,1.34,0,0,1,.07-.18c.05.36.17.82.55.64s.19-.4.07-.67c.32.21.68.36,1,.05a.11.11,0,0,0,0-.12,1.58,1.58,0,0,0-1-.52c.48-.13,1.09-.36.85-.72s-.53-.14-.84.12a.83.83,0,0,0,.07-.13,1.18,1.18,0,0,0-.05-1.33.12.12,0,0,0-.18,0,1.61,1.61,0,0,0-.42.89,1.53,1.53,0,0,0-.34-.45c-.05,0-.14,0-.14,0a4.23,4.23,0,0,0,0,.94c-.18-.12-.37-.14-.5.06s0,.42.24.52a.33.33,0,0,0-.22.38c.09.4.44.26.74.09a.8.8,0,0,0,0,.31,17.43,17.43,0,0,0-1,3c-.13.49-.24,1-.33,1.5a10.71,10.71,0,0,1-.21-2.65l.13-.08a.42.42,0,0,0,.33.19c.25,0,.28-.37.24-.56s0-.08,0-.12l.15-.12c.13-.13.28-.36.16-.55a.3.3,0,0,0-.47,0,1.23,1.23,0,0,0,0-.78.1.1,0,0,0-.14-.06.81.81,0,0,0-.48.55.81.81,0,0,0-.48-.32c-.07,0-.11,0-.13.09a.79.79,0,0,0,.25.76c-.2,0-.37,0-.35.28a.43.43,0,0,0,.19.32.33.33,0,0,0,.14.33.45.45,0,0,0,.33.12,9.54,9.54,0,0,0,0,2.56,5,5,0,0,1-.36-.9.57.57,0,0,0,.26-.31.13.13,0,0,0-.12-.17c.09-.3.16-.65-.16-.79a.1.1,0,0,0-.14,0,.48.48,0,0,0-.06.28.24.24,0,0,0-.29,0,.24.24,0,0,0-.06.26h-.12a.11.11,0,0,0-.09.09.48.48,0,0,0,.34.63.57.57,0,0,0,.26,0,4.56,4.56,0,0,0,.4,1.51c.08.67.22,1.33.36,2,0,.43.05.86.06,1.29-.45-.88-1-1.67-1.41-2.58a10.71,10.71,0,0,1-.38-1,.15.15,0,0,0,.05-.14,3,3,0,0,0-.3-.84,19.65,19.65,0,0,1-.39-3.34.41.41,0,0,0,.32-.07c.24-.14.23-.39.11-.65.18.08.34.08.44-.1.24-.46-.22-.73-.66-.77.45-.1.94-.2.76-.79a.09.09,0,0,0-.12,0,1.88,1.88,0,0,0-.73.58,2.68,2.68,0,0,0-.22-1.82.12.12,0,0,0-.17,0,1,1,0,0,0-.36,1.12,1.86,1.86,0,0,0-.93-.51c-.05,0-.08,0-.1.07a.89.89,0,0,0,.39,1c-.32,0-.61,0-.73.22s.13.61.4.68l.17,0A.36.36,0,0,0,14,14c.05.26.38.29.58.2a1.47,1.47,0,0,0,.54-.43,2,2,0,0,0-.4,1,.12.12,0,0,0,.18.08,1,1,0,0,0,.35-.43.58.58,0,0,0,.09.21,22.34,22.34,0,0,0,.09,2.72l0,0,0-.06A3.9,3.9,0,0,0,15.06,16c-.43-.72-1.32-.84-2-1.31a.15.15,0,0,0-.21.2,16.2,16.2,0,0,0,1.25,1.92c.44.52,1.29.92,1.39,1.64a.1.1,0,0,0,.09.11,9.85,9.85,0,0,0,.27,1.07,12.24,12.24,0,0,0,1.26,2.66c.43.74,1.09,1.76.58,2.61a.21.21,0,0,0,0,.15,1.2,1.2,0,0,1-.17.21c-.2-.22-.42-.41-.64-.61a8.08,8.08,0,0,1-1.33-1.41A11.28,11.28,0,0,1,14.35,21h0a.14.14,0,0,0,.11-.11.73.73,0,0,0-.09-.44c.21,0,.41-.07.46-.3s-.09-.3-.27-.29c.25-.2.47-.45.17-.65s-.38,0-.55.17c.12-.7.14-1.43-.33-1.49-.32-.05-.52.3-.51.57a1.43,1.43,0,0,0,.19.56.86.86,0,0,0-.53-.16c-.07,0-.09.08-.08.13a.82.82,0,0,0,.22.4c-.26,0-.49,0-.57.25a.41.41,0,0,0,.26.53.48.48,0,0,0,0,.48.56.56,0,0,0,.9.14.12.12,0,0,0,.07.11.74.74,0,0,0,.27.1A11.24,11.24,0,0,0,15,23a1.9,1.9,0,0,0-.51-.14A2.56,2.56,0,0,1,12.59,22c-.06-.08-.22,0-.2.07a3,3,0,0,0,1.14,1.73c.65.45,1.24,0,1.91,0,.64.86,1.47,1.54,2.14,2.4a.19.19,0,0,0,.16.09c-.14.62-.31,1.23-.45,1.84-.22,1-.44,2-.65,3-.17.81-.34,1.63-.53,2.43a8.55,8.55,0,0,0-.3-1.21,15.06,15.06,0,0,0-1.28-2.69h0c.07-1.21,1-2.43.53-3.64a.15.15,0,0,0-.27,0A3,3,0,0,1,14,27.08a1.05,1.05,0,0,0-.35.61,1,1,0,0,0,0,.34,10.49,10.49,0,0,1-1.24-2.73,1,1,0,0,0,.05-.48,3.55,3.55,0,0,0,.78-.19.13.13,0,0,0,.08-.12c0-.29-.22-.44-.5-.31a1.36,1.36,0,0,0-.33.22,1,1,0,0,0-.16-1.06.12.12,0,0,0-.19,0,1,1,0,0,0-.21.55c-.18-.12-.37-.18-.51,0s-.06.39.1.56c-.2,0-.32.19-.2.53a.5.5,0,0,0,.37.36.3.3,0,0,0,.4.26.38.38,0,0,0,.23-.13,14.87,14.87,0,0,0,1.43,3.39,1.64,1.64,0,0,0-.25-.21,2.78,2.78,0,0,0-.84-.33c-.56-.15-1.13-.2-1.69-.35a1,1,0,0,0-.23-.18,1.38,1.38,0,0,0,.28-.19c.23-.21.13-.47-.15-.56a.15.15,0,0,0-.13,0,.3.3,0,0,0-.06.11.75.75,0,0,0-.75-.36.08.08,0,0,0-.07.11,1,1,0,0,0,.1.17c-.19-.08-.38-.09-.45.12a.37.37,0,0,0,.21.41.44.44,0,0,0,.09.57.42.42,0,0,0,.57.3c.23.26.61.38.76,0a.31.31,0,0,0,0-.25c.35.08.71.12,1.06.18a3.18,3.18,0,0,1,1.31.44,4.58,4.58,0,0,1,.42.35l0,.06a23.65,23.65,0,0,1,1.22,2.66c-.21-.21-.42-.39-.59-.53a3.89,3.89,0,0,0-3.09-.95.08.08,0,0,0,0,.15c.67.11.82.91,1.36,1.23s1.41.14,2,.53a3.08,3.08,0,0,1,.63.76c.12.62.18,1.25.25,1.88-.16.6-.34,1.19-.54,1.78-.56.95-1.26,1.79-1.84,2.75a2.57,2.57,0,0,0-.12,3.09c.09.12.34.13.39,0,.53-1.68,1.2-3.3,1.82-4.94,0-.13.09-.26.14-.39.43-.48,1.13-.54,1.69-.82a2.92,2.92,0,0,0,.78-.51l.11-.12s0,0,.06,0l0,0h.07a.64.64,0,0,0,.37.66.11.11,0,0,0,.15,0,1.13,1.13,0,0,0,0-.77.8.8,0,0,0,.92.22.14.14,0,0,0,.08-.16.89.89,0,0,0-.56-.53,1.23,1.23,0,0,0,.61-.76c.07-.25.05-.68-.3-.69s-.5.41-.63.62a1.09,1.09,0,0,1-.08.15c-.1-.34-.32-.62-.67-.52s-.39.48-.21.8a.46.46,0,0,0-.2.38.64.64,0,0,0,.2.55,3,3,0,0,1-1.07.56c-.37.12-.77.17-1.11.32l.09-.28a20.39,20.39,0,0,0,1.22-3.36l.26-.38a6.49,6.49,0,0,1,1-1c.54-.49,1.14-.9,1.66-1.4a6.14,6.14,0,0,0,1.44-2c.05.31.15.63.4.64a.34.34,0,0,0,.33-.37.76.76,0,0,0-.11-.32c.16.07.32.06.39-.11a.3.3,0,0,0-.18-.37c.34,0,.71-.12.62-.4a.35.35,0,0,0-.52-.15,5.22,5.22,0,0,0-.44.42h0a3.14,3.14,0,0,0,.37-.73c.13-.3.36-.84.1-1.13s-.48,0-.56.48L21.78,26c0-.07-.15,0-.18,0a1.14,1.14,0,0,0-.16.59.52.52,0,0,0-.13-.06.1.1,0,0,0-.13,0,.78.78,0,0,0,0,.62.43.43,0,0,0-.11.36c0,.24.11.37.24.41a6.75,6.75,0,0,1-1.69,2,.38.38,0,0,0,0-.1,2.21,2.21,0,0,0,.3-1c.06-.92-.1-1.85-.06-2.77v0c0-.15-.25-.15-.26,0s0,.12,0,.18c0,.41-.35.73-.49,1.1a2.61,2.61,0,0,0-.19.87c0,.68.41,1.25.37,1.93v0l-.07.13c-.55.42-1.1.83-1.61,1.3l-.21.22c.22-.91.42-1.82.62-2.72a29.33,29.33,0,0,0,.79-4.28c.35-.17.71-.3,1.07-.47a.6.6,0,0,0,.13.09.38.38,0,0,0,.1,0c.44.38,1.28,0,1.69-.24a.13.13,0,0,0,0-.2,1.35,1.35,0,0,0-1.21-.18A2.35,2.35,0,0,0,21,23.5,15.83,15.83,0,0,0,22,21.9a.2.2,0,0,0,.12.15A.27.27,0,0,0,22.4,22a.49.49,0,0,0,.19-.32c.14.24.32.43.55.35a.3.3,0,0,0,.12-.48.76.76,0,0,0-.08-.11.75.75,0,0,0,.33,0s.07-.07,0-.1a.63.63,0,0,0-.54-.35l.12-.12a2.75,2.75,0,0,0,.58-.74.11.11,0,0,0-.06-.15c-.4-.17-.67.11-.84.45a1.16,1.16,0,0,0-.21-.45.09.09,0,0,0-.14,0,.86.86,0,0,0-.18.58.44.44,0,0,0-.34-.05c-.25.08-.22.27-.11.43-.2.06-.35.23-.18.46a.46.46,0,0,0,.44.16c-.43.58-.84,1.19-1.33,1.73a2.13,2.13,0,0,1-.26.26,2.3,2.3,0,0,0,.37-.93,3.2,3.2,0,0,0-.2-1.68.12.12,0,0,0-.23,0,10.45,10.45,0,0,0-.57,2,6.22,6.22,0,0,0,.17,1,4.37,4.37,0,0,1-.79.34c-.13,0-.27.09-.4.15v-.48a10.92,10.92,0,0,0-.12-1.15,3.56,3.56,0,0,1,.2-1.72c.19-.35.47-.63.65-1,.65-.42,1.28-.89,1.94-1.29l.14-.08h0a.09.09,0,0,0,.07,0h0a2,2,0,0,0,1.28.16,3.56,3.56,0,0,0,1.18-.94c0-.05,0-.13,0-.16a1.75,1.75,0,0,0-1.65.19,2.38,2.38,0,0,0,.37-.51l0,0a4.45,4.45,0,0,0,.45-.68,3,3,0,0,0,.85-1.2.59.59,0,0,0,.3.37.34.34,0,0,0,.42-.3h0c.22,0,.28-.22.27-.42s-.09-.32-.24-.34l.07-.08c.19-.23.49-.6.27-.91s-.44.12-.61.55a.46.46,0,0,0-.3-.19.14.14,0,0,0-.12.07.74.74,0,0,0-.06.56c-.09,0-.17.08-.21.22a.37.37,0,0,0,.08.4,3.51,3.51,0,0,1-.57.85,12.84,12.84,0,0,0,.53-1.67,3.08,3.08,0,0,0,0-1.21,2,2,0,0,0,.07-.23ZM11.92,25.24a.84.84,0,0,0,.21-.27h0c0,.07,0,.16,0,.2S12,25.29,11.92,25.24Zm-.08-.51.08,0a.12.12,0,0,0,.12,0,0,0,0,0,0,.05,0l0,0s0,.07,0,.1A.14.14,0,0,0,12,24.8a.5.5,0,0,0-.29.3c-.08,0-.16-.05-.22-.2C11.33,24.55,11.64,24.63,11.84,24.73Zm.1-.45a.64.64,0,0,0,.1.18.06.06,0,0,0,0,0,1.21,1.21,0,0,1,0,.18h0a.11.11,0,0,0-.06-.13l-.07,0-.2-.14c-.07-.07-.29-.33-.09-.31S11.84,24.17,11.94,24.28Zm.35.06a1.77,1.77,0,0,0-.14-.17.7.7,0,0,1,0-.53A1,1,0,0,1,12.29,24.34Zm.73.09c-.17.05-.35.08-.53.12l.1-.06a1.15,1.15,0,0,1,.32-.14A.08.08,0,0,1,13,24.43Zm.89-4.71Zm0,.94,0,0a.31.31,0,0,0,.07-.09c0,.05,0,.09,0,.14Zm-.74-.41a1.13,1.13,0,0,0,.46,0,.13.13,0,0,0,.07-.06.13.13,0,0,0,.06.14h0a.6.6,0,0,1-.23.27C13.36,20.76,13.24,20.65,13.17,20.25Zm-.09-.67c.21,0,.48.17.68.24,0,.08,0,.16.05.24a.12.12,0,0,0-.1.05.17.17,0,0,0,0-.13A.5.5,0,0,0,13,20l-.07,0C12.83,19.65,12.9,19.52,13.08,19.58Zm.67-.06s0,0,0,0a1.1,1.1,0,0,1-.57-.49A1.27,1.27,0,0,1,13.75,19.52Zm.23-.37a.78.78,0,0,1,0,.14L13.78,19a1.34,1.34,0,0,1-.16-.39c0-.24.11-.63.32-.29A1.67,1.67,0,0,1,14,19.15ZM14,20l.06-.26a.09.09,0,0,0,0-.1c.14-.18.32-.34.43-.3C14.85,19.42,14.22,19.86,14,20Zm.09.19c.13-.06.53-.22.46-.06S14.31,20.24,14.13,20.18Zm.92,3.05a.72.72,0,0,0-.19,0,.91.91,0,0,1-.61.13,3.55,3.55,0,0,0-.57-.07s0,.06,0,.07a4.11,4.11,0,0,0,.82.26c.14,0,.48-.17.6-.07a2.22,2.22,0,0,1-1.21.13,2.17,2.17,0,0,1-1.12-1.23,1.72,1.72,0,0,0,.74.43A8.35,8.35,0,0,1,15.05,23.23Zm.06-6.31a2.92,2.92,0,0,0-.75-.7s-.08,0,0,.07a3.94,3.94,0,0,1,.9,1.19c-.18-.18-.38-.33-.57-.5a7.14,7.14,0,0,1-1.22-1.75c.6.31,1.27.54,1.53,1.2A4,4,0,0,1,15.11,16.92Zm.26-2.76v0Zm-.15.05a1,1,0,0,1-.21.34,2,2,0,0,1,.19-.42S15.21,14.19,15.22,14.21Zm-.72-.54a3.48,3.48,0,0,0,.61-.17c0,.06-.09.12-.14.17a1,1,0,0,1-.28.29c-.15.08-.54.18-.42-.08A.68.68,0,0,1,14.5,13.67Zm.48-.54.19.06a2.69,2.69,0,0,0-.72.25l-.13,0c-.17,0-.71,0-.59-.36,0-.13.26-.12.37-.12A3.38,3.38,0,0,1,15,13.13Zm-.51-1a2.37,2.37,0,0,1,.69.82l-.41-.13a1.47,1.47,0,0,1-.58-.42c-.07-.08-.19-.25-.16-.36C14.08,11.79,14.31,12,14.47,12.16Zm.86-.75a2.41,2.41,0,0,1,.18,1.43.06.06,0,0,0-.09.05C15.22,12.43,15,11.82,15.33,11.41Zm.37,1.7.07-.07c.07-.07.65-.64.61-.34S16,13,15.7,13.11Zm.06.59-.19-.23,0-.14h.22a.67.67,0,0,1,.4.24c.14.21.06.37-.13.33A.73.73,0,0,1,15.76,13.7Zm-.21.85c0-.27,0-.53,0-.8l.09.14a2.19,2.19,0,0,1,.16.3C15.86,14.37,15.78,14.73,15.55,14.55Zm1.73,3a.08.08,0,0,0,0-.08l0,0a.77.77,0,0,1,0-.15l.05.08a.11.11,0,0,0,.09,0v0A.3.3,0,0,1,17.28,17.57Zm-.51-.13a.32.32,0,0,1,.2.06l.15.14,0,0h0a.32.32,0,0,1-.17,0C16.81,17.7,16.76,17.57,16.77,17.44Zm.36-.24v.13l-.07,0c-.06-.07-.11-.14-.09-.17S17.07,17.14,17.13,17.2Zm.29,0a.6.6,0,0,1-.07-.37C17.44,16.89,17.44,17,17.42,17.19Zm.49-1.64h0v0Zm-.2.3h.05v.07A.09.09,0,0,1,17.71,15.85Zm.11-.35,0,.07a.37.37,0,0,0-.45,0,.23.23,0,0,1-.1-.12C17.19,15.23,17.6,15.4,17.82,15.5ZM17.7,15a.76.76,0,0,0,0,.15.84.84,0,0,1-.36-.59A.65.65,0,0,1,17.7,15Zm.51-.67a1.79,1.79,0,0,1-.19,1l-.11-.06a.08.08,0,0,0,0,0v0h0a.86.86,0,0,0,0-.22A.86.86,0,0,1,18.21,14.33Zm.25,1-.08.06v0a.12.12,0,0,0-.09-.15c.13-.14.27-.26.33-.19S18.52,15.3,18.46,15.35Zm-.13.67Zm0,0Zm-.15-.14a1.74,1.74,0,0,0,.11-.18l.1,0a.43.43,0,0,1,0,.05v.06h0v0a.43.43,0,0,1,0,.05v0h0l0,.05v0h-.07l0,0,0,0h0l0,0ZM19,13.75a1,1,0,0,1,.25-.08h.24l0,0v0c-.12.1-.25.23-.35.23S19,14,19,13.75Zm.21-.52a1.47,1.47,0,0,0,.1.22h-.16c-.06,0-.21,0-.25-.09s0-.22.15-.21A.48.48,0,0,1,19.23,13.23Zm.36-.33a4.12,4.12,0,0,0,0,.51,2.11,2.11,0,0,0-.25-.27,2.45,2.45,0,0,1-.07-.85A1.91,1.91,0,0,1,19.59,12.9Zm.26.26a2.3,2.3,0,0,0-.06-.28,1.78,1.78,0,0,1,.33-1.08C20.38,12.3,20.12,12.72,19.85,13.16Zm.3.24-.26.07h0l.31-.25a2,2,0,0,1,.37-.22c.12-.06.38-.09.26.11S20.32,13.35,20.15,13.4Zm-.22.33a2.7,2.7,0,0,1,.41.07c.09,0,.74.31.44.41S20.14,13.88,19.93,13.73Zm-.14.21c.13.18.36.54.28.63S19.81,14.13,19.79,13.94ZM24.4,15.2s0-.09.05-.14l.06.08s0,0,0,0a0,0,0,0,0,0,.06h0Zm-.15-.07c0-.13.09-.15.15-.12a2.14,2.14,0,0,1-.1.22l0,0A.24.24,0,0,1,24.25,15.13Zm.46-.43a1.35,1.35,0,0,0-.07.27.82.82,0,0,1-.1-.24.24.24,0,0,0,0-.08s0,0,0,0a.76.76,0,0,1,0-.21A.3.3,0,0,1,24.71,14.7Zm.27-.13,0-.07a3.65,3.65,0,0,1,.14-.35l.1-.16h0C25.29,14.2,25.11,14.41,25,14.57Zm0,.75a.27.27,0,0,0-.28-.09l.06-.07a.11.11,0,0,0,.1-.06.05.05,0,0,1,0,0A.41.41,0,0,1,25,15c.07,0,.11,0,.13,0a.43.43,0,0,1,0,.25S25,15.33,25,15.32Zm-.35.2a.1.1,0,0,0,0,0l.13,0,0,.06s-.05.05-.07,0Zm-2.07,4.62a1,1,0,0,1,.11.67l-.08.1a.72.72,0,0,0-.09-.2A.86.86,0,0,1,22.54,20.14Zm.06.89,0,0a0,0,0,0,0,0,.05l0,0A.08.08,0,0,0,22.6,21Zm-.28-.27a1.33,1.33,0,0,0,.1.28c-.05,0-.1.07-.07.13h0l-.05.07-.05,0a.48.48,0,0,1-.17,0c-.19.05-.21,0-.07-.27a.09.09,0,0,0,.07-.16c-.12-.09-.24-.28,0-.25A.34.34,0,0,1,22.32,20.76Zm.78-.17a2.86,2.86,0,0,1-.24.3,2.79,2.79,0,0,1,.12-.34l0,0a0,0,0,0,0,0,0c.11-.2.25-.37.45-.36A3.34,3.34,0,0,1,23.1,20.59Zm.26.67a1.1,1.1,0,0,1-.58-.13l.11-.07A.5.5,0,0,1,23.36,21.26Zm-.72,0h0a1.24,1.24,0,0,1,.35.25c.06,0,.16.16.13.24s-.12.08-.18,0A1,1,0,0,1,22.64,21.3Zm-.43.58Zm0,0Zm0,0Zm0,0Zm0,0Zm0,0Zm0,0s0,0,0,0a.43.43,0,0,0,0-.05v0l0,0s0,0,0-.08l.07-.09.08-.12,0,0a.36.36,0,0,0,0,.09.67.67,0,0,1-.05.19.26.26,0,0,1-.07.11l0,0h0l0,0h-.09Zm-1.57.74a1.6,1.6,0,0,1-.13.44,1.64,1.64,0,0,0-.11-.66,0,0,0,0,0-.07,0,2.75,2.75,0,0,1-.06,1.14l0,0a2.76,2.76,0,0,1-.12-.5,4,4,0,0,1,.43-1.71A3.37,3.37,0,0,1,20.64,22.59Zm-.25,1.77a2.16,2.16,0,0,0,.36,0,0,0,0,0,0,0-.08,1.61,1.61,0,0,1-.49-.06l0,0v0a1.49,1.49,0,0,0,.2-.15,1.26,1.26,0,0,1,1.06.12C21.2,24.29,20.71,24.51,20.39,24.36Zm.9,3h0a1.21,1.21,0,0,0,.2.19h0a.1.1,0,0,0-.11.11v.11l0,0c-.08,0-.14,0-.16-.21S21.25,27.39,21.29,27.36Zm.45-.36-.06-.12a1,1,0,0,1,0-.55,2.13,2.13,0,0,1,.07.44v.11Zm-.26-.06a1.61,1.61,0,0,0,.12.33l0,0,0,.06a.52.52,0,0,0-.21-.19.48.48,0,0,1-.08-.41A.52.52,0,0,1,21.48,26.94Zm.62-.07a3,3,0,0,1-.31.62s0,0-.05.06a.1.1,0,0,1,0,.06h0a2.45,2.45,0,0,0,.08-.29.08.08,0,0,0,0-.1v0h0s0-.05,0-.07A.1.1,0,0,0,22,27c0-.14,0-.28,0-.42a2.83,2.83,0,0,1,0-.3,1.34,1.34,0,0,1,.09-.45c.08-.15.19-.17.24,0A1.77,1.77,0,0,1,22.1,26.87Zm.32.55-.25,0a3.26,3.26,0,0,1,.25-.22c.06,0,.4-.11.31.07S22.48,27.41,22.42,27.42Zm-.6.29h0a.31.31,0,0,0,.12-.05c.18,0,.44.13.37.27S22,27.83,21.82,27.71Zm-.16.18,0,0a3.55,3.55,0,0,1,.23.31c0,.07.22.4,0,.42s-.12-.09-.14-.15A1.74,1.74,0,0,1,21.66,27.89Zm-2,1.61a3,3,0,0,1,0-1.29,0,0,0,0,0-.08,0,2.93,2.93,0,0,0-.16,1,2.83,2.83,0,0,1-.21-1.07A3.13,3.13,0,0,1,19.64,27c0,.49.07,1,.09,1.47A3.2,3.2,0,0,1,19.63,29.5ZM18.14,35l0,0a1.13,1.13,0,0,0,.28.26h0a.09.09,0,0,0-.11.08h0l-.12.13A.24.24,0,0,1,18.14,35Zm.54-.11v0a.62.62,0,0,0-.41-.25c-.07-.1-.07-.18.06-.3s.25,0,.31.21A.83.83,0,0,1,18.68,34.92Zm.25.11a1.34,1.34,0,0,0,0-.2c.06-.12.13-.23.19-.33a1.71,1.71,0,0,1,.29-.43s.08-.1.12-.11c.21,0,.14.24.11.34A1.1,1.1,0,0,1,18.93,35Zm0,.31a.71.71,0,0,1,.64.31A.81.81,0,0,1,18.91,35.34Zm-.37.17v0h0a1.37,1.37,0,0,1,.12.71A.77.77,0,0,1,18.54,35.51Zm-.67-9.84h0l0,0Zm1.49-8.08.08,0v0A.06.06,0,0,1,19.36,17.59Zm.29-.06v0l-.06-.06s0-.1,0-.15l0,.12a.15.15,0,0,0,0,.07Zm-.1-.36,0,0a.68.68,0,0,1,0,.14.41.41,0,0,1,0-.22Zm.31.16a.64.64,0,0,1,.17-.51A1.4,1.4,0,0,1,19.86,17.33ZM22,17.08c0,.12-.09.27-.16.44,0-.17,0-.33,0-.49a6.93,6.93,0,0,1,.52-2.13c0,.06,0,.13,0,.2A7.45,7.45,0,0,1,22,17.08Zm2.16-4.55a4.37,4.37,0,0,0-.18-1,0,0,0,1,0-.07,0,3.84,3.84,0,0,1,0,1.22A17.9,17.9,0,0,0,23.77,11,3,3,0,0,1,24.13,12.53Zm-1.84,6.11a1.56,1.56,0,0,0,1.12-.44c0-.05,0-.1-.06-.06-.32.37-.94.28-1.41.3a4.47,4.47,0,0,0,.41-.32A2.24,2.24,0,0,1,24,17.84a5.5,5.5,0,0,1-.8.73A1.1,1.1,0,0,1,22.29,18.64Zm-7.5,7.91a8.36,8.36,0,0,1-.31,1.6c0,.15-.08.3-.11.45a4,4,0,0,1,0-.91,0,0,0,1,0-.07,0,4.74,4.74,0,0,0-.21,1.06,1.23,1.23,0,0,1-.21-1.24c.15-.29.48-.43.68-.67A1.79,1.79,0,0,0,14.79,26.55Zm-.18,5.14a5.72,5.72,0,0,0-2-.61s0,.05,0,.05a4.88,4.88,0,0,1,1.43.66,2.07,2.07,0,0,1-1.26-.26c-.4-.29-.58-.74-1-1a4,4,0,0,1,2.48.85C14.37,31.5,14.49,31.58,14.61,31.69Zm-4.15-4-.08,0c.07,0,.12-.09.07-.14A3.37,3.37,0,0,1,10,27a.47.47,0,0,1,.46.35A.52.52,0,0,1,10.46,27.67Zm.22-.11v0h0Zm.17-.19,0,.07,0-.12A0,0,0,0,1,10.85,27.37Zm-1,.36a1.11,1.11,0,0,0,.22.07h0a.1.1,0,0,0,0,.07,2.71,2.71,0,0,0,.49.22l.15.14c-.12.1-.21.14-.26.11a.31.31,0,0,0-.09-.31.15.15,0,0,0-.26.1.64.64,0,0,0,0,.17.13.13,0,0,1-.14,0,.13.13,0,0,0,0-.22.7.7,0,0,0-.17-.13.14.14,0,0,0-.14,0A.23.23,0,0,1,9.84,27.73Zm-.09-.2s-.05,0-.05-.07l.12-.2.09,0a1.2,1.2,0,0,1,.41.31h-.07C10.05,27.4,9.87,27.42,9.75,27.53Z" transform="translate(-1.51 -3.46)" fill="#e87364"/><path d="M22.23,21.88Z" transform="translate(-1.51 -3.46)" fill="#e87364"/></svg>